<svg id="Capa_1" enable-background="new 0 0 512 512" height="512" viewBox="0 0 512 512" width="512" xmlns="http://www.w3.org/2000/svg"><g><path d="m279.157 169.142-23.157-32.304-92.373 188.993c21.447 27.496 54.881 45.207 92.373 45.207l23.157-32.304z" fill="#bceaf9"/><path d="m373.1 253.938c0-64.569-52.53-117.1-117.1-117.1v234.2c11.042 0 21.732-1.536 31.867-4.406l20.506-70.799 64.508-34.683c.145-2.386.219-4.791.219-7.212z" fill="#acceff"/><path d="m256 475.139c-58.534 0-113.564-22.794-154.955-64.185-41.39-41.39-64.184-96.42-64.184-154.955s22.794-113.565 64.184-154.955c41.391-41.389 96.421-64.183 154.955-64.183s113.564 22.794 154.955 64.185c41.39 41.39 64.184 96.42 64.184 154.955s-22.794 113.565-64.184 154.955c-41.391 41.389-96.421 64.183-154.955 64.183zm0-408.278c-104.291 0-189.139 84.847-189.139 189.139s84.848 189.139 189.139 189.139 189.139-84.847 189.139-189.139-84.848-189.139-189.139-189.139z" fill="#acceff"/><path d="m445.139 256c0 104.292-84.848 189.139-189.139 189.139v30c58.534 0 113.564-22.794 154.955-64.185 41.39-41.39 64.184-96.42 64.184-154.955s-22.794-113.565-64.184-154.955c-41.391-41.389-96.421-64.183-154.955-64.183v30c104.291 0 189.139 84.847 189.139 189.139z" fill="#989dec"/><path d="m256 512c-8.284 0-15-6.716-15-15v-73.722c0-8.284 6.716-15 15-15s15 6.716 15 15v73.722c0 8.284-6.716 15-15 15z" fill="#bceaf9"/><path d="m256 103.722c-8.284 0-15-6.716-15-15v-73.722c0-8.284 6.716-15 15-15s15 6.716 15 15v73.722c0 8.284-6.716 15-15 15z" fill="#bceaf9"/><path d="m372.871 261.149-58.996-10.055c-16.958-4.652-35.219 2.948-43.813 18.404-6.523 11.73-6.416 26.244.28 37.878l16.432 28.547c.738 1.284 1.129 2.744 1.129 4.223l-.037 26.484c46.909-13.283 81.931-55.136 85.005-105.481z" fill="#49a420"/><path d="m88.722 271h-73.722c-8.284 0-15-6.716-15-15s6.716-15 15-15h73.722c8.284 0 15 6.716 15 15s-6.716 15-15 15z" fill="#bceaf9"/><g fill="#acceff"><path d="m497 271h-73.722c-8.284 0-15-6.716-15-15s6.716-15 15-15h73.722c8.284 0 15 6.716 15 15s-6.716 15-15 15z"/><path d="m271 88.722v-73.722c0-8.284-6.716-15-15-15v103.722c8.284 0 15-6.716 15-15z"/><path d="m271 497v-73.722c0-8.284-6.716-15-15-15v103.722c8.284 0 15-6.716 15-15z"/></g><path d="m138.9 253.938c0 27.077 9.241 52.033 24.729 71.89l39.855-22.702c13.257-7.952 21.43-22.493 21.33-37.949l-.09-13.876c-.042-6.571 4.403-12.188 10.81-13.66 6.166-1.417 11.84-4.085 16.862-7.929l19.667-15.052c11.755-8.996 15.593-25.188 9.127-38.502l-18.766-39.14c-2.128-.116-4.269-.179-6.425-.179-64.568-.001-117.099 52.53-117.099 117.099z" fill="#97de3d"/><path d="m272.064 214.66c11.755-8.996 15.593-25.188 9.127-38.502l-18.766-39.14c-2.128-.116-4.269-.179-6.425-.179v90.116z" fill="#49a420"/></g></svg>